<?xml version="1.0" encoding="UTF-8" standalone="no"?>
<!DOCTYPE svg PUBLIC "-//W3C//DTD SVG 1.1//EN" "http://www.w3.org/Graphics/SVG/1.1/DTD/svg11.dtd">
<svg width="100%" height="100%" viewBox="0 0 107 16" version="1.1" xmlns="http://www.w3.org/2000/svg" xmlns:xlink="http://www.w3.org/1999/xlink" xml:space="preserve" style="fill-rule:evenodd;clip-rule:evenodd;stroke-linejoin:round;stroke-miterlimit:1.41421;">
    <g transform="matrix(0.822283,0,0,1,-13.7611,-74.3556)">
        <path d="M44.961,74.356L16.735,74.356L21.933,80.959L16.735,86.764L44.961,86.764L44.961,74.356Z" style="fill:rgb(251,192,45);"/>
    </g>
    <g transform="matrix(-0.822283,0,0,1,120.642,-74.3556)">
        <path d="M44.961,74.356L16.735,74.356L21.933,80.959L16.735,86.764L44.961,86.764L44.961,74.356Z" style="fill:rgb(251,192,45);"/>
    </g>
    <g transform="matrix(1.3501,0,0,1,-37.4924,-74.3556)">
        <path d="M39.858,77.138L44.961,74.356L44.961,87.426L39.858,89.546" style="fill:rgb(249,168,37);"/>
    </g>
    <g transform="matrix(-1.3501,0,0,1,144.373,-74.3556)">
        <path d="M39.858,77.138L44.961,74.356L44.961,87.426L39.858,89.546" style="fill:rgb(249,168,37);"/>
    </g>
    <g transform="matrix(-2.62931,0,0,1,134.538,-71.573)">
        <rect x="16.735" y="74.356" width="28.226" height="12.408" style="fill:rgb(253,216,53);"/>
    </g>
    <g transform="matrix(0.427716,0,0,0.427716,2.60347,-24.9571)">
        <g opacity="0.78438">
            <path d="M56.137,85.297L48.153,85.297L48.153,83.618L51.02,80.719C51.869,79.849 52.424,79.247 52.684,78.911C52.945,78.575 53.132,78.264 53.247,77.977C53.361,77.691 53.419,77.394 53.419,77.086C53.419,76.628 53.292,76.287 53.04,76.063C52.787,75.839 52.45,75.727 52.028,75.727C51.585,75.727 51.156,75.829 50.739,76.032C50.322,76.235 49.887,76.524 49.434,76.899L48.122,75.344C48.684,74.865 49.15,74.527 49.52,74.329C49.89,74.131 50.294,73.978 50.731,73.872C51.169,73.765 51.658,73.711 52.2,73.711C52.913,73.711 53.544,73.842 54.09,74.102C54.637,74.362 55.062,74.727 55.364,75.196C55.666,75.665 55.817,76.201 55.817,76.805C55.817,77.331 55.725,77.825 55.54,78.286C55.355,78.747 55.068,79.219 54.68,79.704C54.292,80.188 53.609,80.878 52.629,81.774L51.161,83.157L51.161,83.266L56.137,83.266L56.137,85.297Z" style="fill-rule:nonzero;"/>
            <path d="M65.208,79.586C65.208,81.581 64.881,83.058 64.227,84.016C63.573,84.974 62.567,85.454 61.208,85.454C59.89,85.454 58.896,84.959 58.227,83.969C57.558,82.98 57.223,81.519 57.223,79.586C57.223,77.571 57.549,76.085 58.2,75.129C58.851,74.174 59.853,73.696 61.208,73.696C62.525,73.696 63.521,74.196 64.196,75.196C64.87,76.196 65.208,77.659 65.208,79.586ZM59.622,79.586C59.622,80.987 59.743,81.991 59.985,82.598C60.227,83.205 60.635,83.508 61.208,83.508C61.77,83.508 62.176,83.201 62.426,82.586C62.676,81.972 62.801,80.972 62.801,79.586C62.801,78.185 62.675,77.179 62.422,76.567C62.17,75.955 61.765,75.649 61.208,75.649C60.64,75.649 60.234,75.955 59.989,76.567C59.744,77.179 59.622,78.185 59.622,79.586Z" style="fill-rule:nonzero;"/>
            <path d="M69.364,83.618C69.093,84.67 68.635,85.917 67.989,87.36L66.27,87.36C66.609,85.974 66.872,84.667 67.059,83.438L69.247,83.438L69.364,83.618Z" style="fill-rule:nonzero;"/>
            <path d="M78.981,79.586C78.981,81.581 78.654,83.058 78.001,84.016C77.347,84.974 76.34,85.454 74.981,85.454C73.663,85.454 72.67,84.959 72.001,83.969C71.331,82.98 70.997,81.519 70.997,79.586C70.997,77.571 71.322,76.085 71.973,75.129C72.624,74.174 73.627,73.696 74.981,73.696C76.299,73.696 77.295,74.196 77.969,75.196C78.644,76.196 78.981,77.659 78.981,79.586ZM73.395,79.586C73.395,80.987 73.516,81.991 73.758,82.598C74.001,83.205 74.408,83.508 74.981,83.508C75.544,83.508 75.95,83.201 76.2,82.586C76.45,81.972 76.575,80.972 76.575,79.586C76.575,78.185 76.448,77.179 76.196,76.567C75.943,75.955 75.538,75.649 74.981,75.649C74.413,75.649 74.007,75.955 73.762,76.567C73.518,77.179 73.395,78.185 73.395,79.586Z" style="fill-rule:nonzero;"/>
            <path d="M88.114,79.586C88.114,81.581 87.787,83.058 87.133,84.016C86.48,84.974 85.473,85.454 84.114,85.454C82.796,85.454 81.803,84.959 81.133,83.969C80.464,82.98 80.129,81.519 80.129,79.586C80.129,77.571 80.455,76.085 81.106,75.129C81.757,74.174 82.76,73.696 84.114,73.696C85.432,73.696 86.428,74.196 87.102,75.196C87.777,76.196 88.114,77.659 88.114,79.586ZM82.528,79.586C82.528,80.987 82.649,81.991 82.891,82.598C83.133,83.205 83.541,83.508 84.114,83.508C84.676,83.508 85.083,83.201 85.333,82.586C85.583,81.972 85.708,80.972 85.708,79.586C85.708,78.185 85.581,77.179 85.329,76.567C85.076,75.955 84.671,75.649 84.114,75.649C83.546,75.649 83.14,75.955 82.895,76.567C82.65,77.179 82.528,78.185 82.528,79.586Z" style="fill-rule:nonzero;"/>
            <path d="M97.247,79.586C97.247,81.581 96.92,83.058 96.266,84.016C95.613,84.974 94.606,85.454 93.247,85.454C91.929,85.454 90.935,84.959 90.266,83.969C89.597,82.98 89.262,81.519 89.262,79.586C89.262,77.571 89.588,76.085 90.239,75.129C90.89,74.174 91.893,73.696 93.247,73.696C94.564,73.696 95.56,74.196 96.235,75.196C96.909,76.196 97.247,77.659 97.247,79.586ZM91.661,79.586C91.661,80.987 91.782,81.991 92.024,82.598C92.266,83.205 92.674,83.508 93.247,83.508C93.809,83.508 94.215,83.201 94.465,82.586C94.715,81.972 94.84,80.972 94.84,79.586C94.84,78.185 94.714,77.179 94.462,76.567C94.209,75.955 93.804,75.649 93.247,75.649C92.679,75.649 92.273,75.955 92.028,76.567C91.783,77.179 91.661,78.185 91.661,79.586Z" style="fill-rule:nonzero;"/>
            <path d="M112.887,79.477C112.887,81.357 112.352,82.797 111.282,83.797C110.212,84.797 108.666,85.297 106.645,85.297L103.411,85.297L103.411,73.875L106.997,73.875C108.861,73.875 110.309,74.368 111.34,75.352C112.372,76.336 112.887,77.711 112.887,79.477ZM110.372,79.54C110.372,77.086 109.288,75.86 107.122,75.86L105.833,75.86L105.833,83.297L106.872,83.297C109.205,83.297 110.372,82.045 110.372,79.54Z" style="fill-rule:nonzero;"/>
            <path d="M116.965,80.915C116.965,81.779 117.107,82.433 117.391,82.875C117.675,83.318 118.137,83.54 118.778,83.54C119.413,83.54 119.87,83.32 120.149,82.879C120.428,82.439 120.567,81.784 120.567,80.915C120.567,80.05 120.426,79.402 120.145,78.969C119.864,78.537 119.403,78.321 118.762,78.321C118.127,78.321 117.669,78.536 117.387,78.965C117.106,79.395 116.965,80.045 116.965,80.915ZM123.004,80.915C123.004,82.336 122.629,83.448 121.879,84.25C121.129,85.053 120.085,85.454 118.747,85.454C117.908,85.454 117.169,85.27 116.528,84.903C115.887,84.536 115.395,84.008 115.051,83.321C114.708,82.633 114.536,81.831 114.536,80.915C114.536,79.487 114.908,78.378 115.653,77.586C116.398,76.795 117.445,76.399 118.794,76.399C119.632,76.399 120.372,76.581 121.012,76.946C121.653,77.31 122.145,77.834 122.489,78.516C122.833,79.198 123.004,79.998 123.004,80.915Z" style="fill-rule:nonzero;"/>
            <path d="M131.833,85.297L131.161,82.243L130.254,78.383L130.2,78.383L128.606,85.297L126.044,85.297L123.559,76.563L125.934,76.563L126.942,80.43C127.103,81.123 127.268,82.079 127.434,83.297L127.481,83.297C127.502,82.902 127.593,82.274 127.754,81.415L127.879,80.75L128.958,76.563L131.583,76.563L132.606,80.75C132.627,80.865 132.659,81.034 132.704,81.258C132.748,81.482 132.791,81.721 132.833,81.973C132.874,82.226 132.912,82.473 132.946,82.715C132.98,82.958 132.999,83.152 133.004,83.297L133.051,83.297C133.098,82.922 133.182,82.408 133.301,81.754C133.421,81.101 133.507,80.659 133.559,80.43L134.606,76.563L136.942,76.563L134.426,85.297L131.833,85.297Z" style="fill-rule:nonzero;"/>
            <path d="M146.411,85.297L144.028,85.297L144.028,80.196C144.028,79.566 143.916,79.093 143.692,78.778C143.468,78.463 143.111,78.305 142.622,78.305C141.955,78.305 141.473,78.528 141.176,78.973C140.879,79.418 140.731,80.157 140.731,81.188L140.731,85.297L138.348,85.297L138.348,76.563L140.169,76.563L140.489,77.68L140.622,77.68C140.887,77.258 141.253,76.939 141.719,76.723C142.185,76.507 142.715,76.399 143.309,76.399C144.325,76.399 145.096,76.674 145.622,77.223C146.148,77.773 146.411,78.566 146.411,79.602L146.411,85.297Z" style="fill-rule:nonzero;"/>
            <rect x="148.864" y="73.141" width="2.383" height="12.156" style="fill-rule:nonzero;"/>
            <path d="M155.645,80.915C155.645,81.779 155.787,82.433 156.071,82.875C156.355,83.318 156.817,83.54 157.458,83.54C158.093,83.54 158.55,83.32 158.829,82.879C159.107,82.439 159.247,81.784 159.247,80.915C159.247,80.05 159.106,79.402 158.825,78.969C158.544,78.537 158.083,78.321 157.442,78.321C156.807,78.321 156.348,78.536 156.067,78.965C155.786,79.395 155.645,80.045 155.645,80.915ZM161.684,80.915C161.684,82.336 161.309,83.448 160.559,84.25C159.809,85.053 158.765,85.454 157.426,85.454C156.588,85.454 155.848,85.27 155.208,84.903C154.567,84.536 154.075,84.008 153.731,83.321C153.387,82.633 153.215,81.831 153.215,80.915C153.215,79.487 153.588,78.378 154.333,77.586C155.077,76.795 156.124,76.399 157.473,76.399C158.312,76.399 159.051,76.581 159.692,76.946C160.333,77.31 160.825,77.834 161.169,78.516C161.512,79.198 161.684,79.998 161.684,80.915Z" style="fill-rule:nonzero;"/>
            <path d="M169.2,85.297L168.739,84.11L168.676,84.11C168.275,84.615 167.863,84.965 167.438,85.161C167.014,85.356 166.46,85.454 165.778,85.454C164.939,85.454 164.279,85.214 163.797,84.735C163.316,84.256 163.075,83.573 163.075,82.688C163.075,81.761 163.399,81.077 164.047,80.637C164.696,80.197 165.674,79.954 166.981,79.907L168.497,79.86L168.497,79.477C168.497,78.592 168.044,78.149 167.137,78.149C166.439,78.149 165.619,78.36 164.676,78.782L163.887,77.172C164.893,76.646 166.007,76.383 167.231,76.383C168.403,76.383 169.301,76.639 169.926,77.149C170.551,77.659 170.864,78.435 170.864,79.477L170.864,85.297L169.2,85.297ZM168.497,81.25L167.575,81.282C166.882,81.303 166.366,81.428 166.028,81.657C165.689,81.886 165.52,82.235 165.52,82.704C165.52,83.375 165.906,83.711 166.676,83.711C167.228,83.711 167.67,83.553 168.001,83.235C168.331,82.917 168.497,82.495 168.497,81.969L168.497,81.25Z" style="fill-rule:nonzero;"/>
            <path d="M176.083,85.454C175.057,85.454 174.251,85.055 173.665,84.258C173.079,83.461 172.786,82.357 172.786,80.946C172.786,79.514 173.084,78.398 173.68,77.598C174.277,76.799 175.098,76.399 176.145,76.399C177.244,76.399 178.083,76.826 178.661,77.68L178.739,77.68C178.619,77.029 178.559,76.448 178.559,75.938L178.559,73.141L180.95,73.141L180.95,85.297L179.122,85.297L178.661,84.165L178.559,84.165C178.018,85.024 177.192,85.454 176.083,85.454ZM176.919,83.555C177.528,83.555 177.975,83.378 178.258,83.024C178.542,82.67 178.697,82.068 178.723,81.219L178.723,80.961C178.723,80.024 178.579,79.352 178.29,78.946C178.001,78.54 177.531,78.336 176.879,78.336C176.348,78.336 175.935,78.562 175.641,79.012C175.347,79.463 175.2,80.118 175.2,80.977C175.2,81.836 175.348,82.481 175.645,82.911C175.942,83.34 176.366,83.555 176.919,83.555Z" style="fill-rule:nonzero;"/>
            <path d="M189.536,82.704C189.536,83.599 189.225,84.282 188.602,84.75C187.98,85.219 187.049,85.454 185.809,85.454C185.174,85.454 184.632,85.411 184.184,85.325C183.736,85.239 183.317,85.112 182.926,84.946L182.926,82.977C183.369,83.185 183.868,83.36 184.422,83.5C184.977,83.641 185.465,83.711 185.887,83.711C186.752,83.711 187.184,83.461 187.184,82.961C187.184,82.774 187.127,82.622 187.012,82.504C186.898,82.387 186.7,82.254 186.419,82.106C186.137,81.958 185.762,81.784 185.294,81.586C184.622,81.305 184.128,81.045 183.813,80.805C183.498,80.566 183.269,80.291 183.126,79.981C182.982,79.671 182.911,79.29 182.911,78.836C182.911,78.06 183.212,77.46 183.813,77.036C184.415,76.611 185.268,76.399 186.372,76.399C187.424,76.399 188.447,76.628 189.442,77.086L188.723,78.805C188.286,78.618 187.877,78.464 187.497,78.344C187.116,78.224 186.728,78.165 186.333,78.165C185.629,78.165 185.278,78.355 185.278,78.735C185.278,78.948 185.391,79.133 185.618,79.29C185.844,79.446 186.34,79.678 187.106,79.985C187.788,80.261 188.288,80.519 188.606,80.758C188.924,80.998 189.158,81.274 189.309,81.586C189.46,81.899 189.536,82.271 189.536,82.704Z" style="fill-rule:nonzero;"/>
        </g>
    </g>
</svg>
